<svg width="46" height="46" viewBox="0 0 46 46" fill="none" xmlns="http://www.w3.org/2000/svg">
<path d="M41.6881 39.6548L30.8321 28.7988C33.4409 25.6669 34.7418 21.6498 34.4642 17.5833C34.1866 13.5167 32.3519 9.71364 29.3418 6.96532C26.3316 4.217 22.3778 2.73499 18.3028 2.82758C14.2278 2.92017 10.3454 4.58024 7.46318 7.46244C4.58097 10.3446 2.9209 14.2271 2.82831 18.3021C2.73572 22.3771 4.21773 26.3309 6.96605 29.341C9.71437 32.3512 13.5174 34.1859 17.584 34.4635C21.6506 34.7411 25.6676 33.4402 28.7995 30.8314L39.6555 41.6874L41.6881 39.6548ZM5.75062 18.6874C5.75062 16.1286 6.5094 13.6273 7.93099 11.4997C9.35258 9.37214 11.3731 7.71391 13.7372 6.7347C16.1012 5.75549 18.7025 5.49929 21.2121 5.99848C23.7217 6.49768 26.027 7.72986 27.8363 9.5392C29.6457 11.3485 30.8778 13.6538 31.377 16.1634C31.8762 18.673 31.62 21.2743 30.6408 23.6384C29.6616 26.0024 28.0034 28.0229 25.8758 29.4445C23.7483 30.8661 21.2469 31.6249 18.6881 31.6249C15.2581 31.6211 11.9696 30.2568 9.54413 27.8314C7.1187 25.406 5.75443 22.1175 5.75062 18.6874Z" fill="#CCB7A4"/>
</svg>
