<svg width="34" height="34" viewBox="0 0 34 34" fill="none" xmlns="http://www.w3.org/2000/svg">
<path d="M29.1626 12.9433H4.83595C4.34373 12.9443 3.85807 13.0563 3.41513 13.271C2.9722 13.4857 2.58338 13.7975 2.27762 14.1833C1.9739 14.5685 1.76163 15.0177 1.65683 15.497C1.55202 15.9762 1.55742 16.473 1.67262 16.9499L4.28095 27.6299C4.65792 29.0063 5.478 30.22 6.61428 31.0833C7.75095 31.9483 9.14262 32.4166 10.5743 32.4166H23.421C24.8526 32.4166 26.2443 31.9483 27.381 31.0833C28.5172 30.22 29.3373 29.0063 29.7143 27.6299L32.3226 16.9516C32.4982 16.2317 32.4212 15.4733 32.1044 14.8034C31.7877 14.1335 31.2504 13.5927 30.5826 13.2716C30.139 13.0563 29.6524 12.9441 29.1593 12.9433M10.4776 19.4333V25.9249M16.9993 19.4333V25.9249M23.521 19.4333V25.9249M28.4126 12.9433C28.412 11.45 28.1164 9.97157 27.5426 8.59294C26.9689 7.21432 26.1283 5.96267 25.0693 4.90992C22.9247 2.77804 20.0232 1.58198 16.9993 1.58325C13.9753 1.58198 11.0739 2.77804 8.92928 4.90992C7.87056 5.9628 7.03032 7.21452 6.45685 8.59314C5.88337 9.97176 5.58797 11.4501 5.58762 12.9433" stroke="#3D3D3D" stroke-width="1.5" stroke-linecap="round" stroke-linejoin="round"/>
</svg>
