<svg width="39" height="39" viewBox="0 0 39 39" fill="none" xmlns="http://www.w3.org/2000/svg">
<g id="entypo-social:vk-with-circle" clip-path="url(#clip0_1_244)">
<path id="Vector" d="M19.4993 0.780029C9.1604 0.780029 0.779297 9.16113 0.779297 19.5C0.779297 29.8389 9.1604 38.22 19.4993 38.22C29.8382 38.22 38.2193 29.8389 38.2193 19.5C38.2193 9.16113 29.8382 0.780029 19.4993 0.780029ZM26.6987 21.9005C26.6987 21.9005 28.3542 23.5346 28.7618 24.2931C28.7735 24.3087 28.7793 24.3243 28.7832 24.3321C28.949 24.611 28.988 24.8274 28.9061 24.9893C28.7696 25.2584 28.3016 25.391 28.1417 25.4027H25.2167C25.0139 25.4027 24.5888 25.35 24.074 24.9951C23.6781 24.7182 23.2881 24.2639 22.9079 23.8212C22.3404 23.1621 21.849 22.5927 21.3537 22.5927C21.2908 22.5926 21.2283 22.6025 21.1685 22.622C20.7941 22.7429 20.3144 23.2772 20.3144 24.7007C20.3144 25.1453 19.9634 25.4007 19.7157 25.4007H18.3761C17.9198 25.4007 15.5427 25.2408 13.4367 23.0198C10.8588 20.2995 8.53835 14.8434 8.51885 14.7927C8.3726 14.4398 8.67485 14.2506 9.0044 14.2506H11.9586C12.3525 14.2506 12.4812 14.4905 12.5709 14.703C12.6762 14.9507 13.0623 15.9354 13.6961 17.043C14.7237 18.8487 15.3536 19.5819 15.8586 19.5819C15.9533 19.5808 16.0464 19.5567 16.1297 19.5117C16.7888 19.1451 16.6659 16.7954 16.6367 16.3079C16.6367 16.2162 16.6347 15.2568 16.2974 14.7966C16.0556 14.4632 15.6441 14.3364 15.3945 14.2896C15.4956 14.1502 15.6287 14.0372 15.7826 13.9601C16.235 13.7339 17.0501 13.7007 17.8593 13.7007H18.3098C19.1873 13.7124 19.4135 13.769 19.7313 13.8489C20.3748 14.003 20.3885 14.4183 20.3319 15.8399C20.3144 16.2435 20.2968 16.6998 20.2968 17.238C20.2968 17.355 20.291 17.4798 20.291 17.6124C20.2715 18.3359 20.2481 19.1568 20.759 19.4942C20.8256 19.536 20.9026 19.5583 20.9813 19.5585C21.1587 19.5585 21.693 19.5585 23.1399 17.0762C23.5862 16.2772 23.9739 15.4469 24.3002 14.5919C24.3294 14.5412 24.4152 14.3852 24.5166 14.3247C24.5915 14.2866 24.6745 14.2672 24.7584 14.2682H28.2314C28.6097 14.2682 28.869 14.3247 28.9178 14.471C29.0036 14.703 28.9022 15.4109 27.3168 17.5578L26.609 18.4919C25.1718 20.3756 25.1718 20.4711 26.6987 21.9005Z" fill="#AB9178"/>
</g>
<defs>
<clipPath id="clip0_1_244">
<rect width="39" height="39" fill="white"/>
</clipPath>
</defs>
</svg>
