<svg width="39" height="39" viewBox="0 0 39 39" fill="none" xmlns="http://www.w3.org/2000/svg">
<g clip-path="url(#clip0_1_246)">
<path d="M19.5 0C8.73112 0 0 8.73112 0 19.5C0 30.2689 8.73112 39 19.5 39C30.2689 39 39 30.2689 39 19.5C39 8.73112 30.2689 0 19.5 0ZM29.0777 13.3591L25.8765 28.4391C25.6409 29.5084 25.0039 29.7684 24.115 29.2646L19.24 25.6734L16.8902 27.9386C16.7751 28.0877 16.6274 28.2084 16.4584 28.2915C16.2894 28.3745 16.1036 28.4178 15.9152 28.418H15.9071L16.2533 23.4552L25.2882 15.2945C25.6783 14.9484 25.2005 14.7518 24.6821 15.0979L13.52 22.1276L8.71 20.6261C7.67 20.2962 7.64075 19.5861 8.92937 19.0759L27.7241 11.8316C28.5984 11.5131 29.3589 12.0396 29.0761 13.3608L29.0777 13.3591Z" fill="#AB9178"/>
</g>
<defs>
<clipPath id="clip0_1_246">
<rect width="39" height="39" fill="white"/>
</clipPath>
</defs>
</svg>
