<svg width="44" height="44" viewBox="0 0 44 44" fill="none" xmlns="http://www.w3.org/2000/svg">
<path d="M12.6857 7.08571H15.7714M12.6857 7.08571L15.7714 4H28.3429L31.5429 7.08571M12.6857 7.08571V12.5143M15.7714 7.08571H28.6857M15.7714 7.08571V12.5143M31.5429 7.08571H28.6857M31.5429 7.08571V12.5143M28.6857 7.08571V12.5143M15.7714 12.5143V17.9429H12.6857V12.5143M15.7714 12.5143H28.6857M28.6857 12.5143V17.9429H31.5429V12.5143M31.5429 12.5143H36.3429V40M36.3429 40H8M36.3429 40L30.8571 34.5143H13.6L8 40M8 40V12.5143H12.6857" stroke="#05B173" stroke-width="3"/>
</svg>
