<svg width="44" height="44" viewBox="0 0 44 44" fill="none" xmlns="http://www.w3.org/2000/svg">
<g id="bx:time-five">
<path id="Vector 8" d="M11.6671 4C12.556 5.51111 14.2271 9.28 13.8005 12.2667C13.3346 15.5277 9.20652 20.4163 8.52482 24.8M11.6671 40C10.7782 37.1556 8.89379 30.5067 8.46712 26.6667C8.39964 26.0594 8.42608 25.435 8.52482 24.8M31.6671 4C30.8671 5.6 29.4271 9.49333 30.0671 12.2667C30.6562 14.8197 33.2703 17.8067 34.2876 21.8667M32.2004 40C32.7337 37.7778 33.9604 32 34.6004 26.6667C34.6777 26.0225 34.7052 25.4008 34.6911 24.8M8.52482 24.8C11.7945 26.2222 18.7604 29.6533 20.4671 32C20.4671 32 21.0077 32.2703 21.8004 32.2336M34.6911 24.8C32.2036 24.8 25.772 29.6 22.8671 32C22.483 32.1536 22.1211 32.2187 21.8004 32.2336M34.6911 24.8C34.6667 23.7621 34.5182 22.7868 34.2876 21.8667M12.2004 22.4C15.2807 23.4667 24.0107 24.8533 34.2876 21.8667M21.8004 40V32.2336" stroke="#05B173" stroke-width="3.5"/>
</g>
</svg>
